<svg version="1.1" id="Layer_1" xmlns="http://www.w3.org/2000/svg" xmlns:xlink="http://www.w3.org/1999/xlink" x="0px" y="0px"
	 width="100%" viewBox="0 0 1101 430" enable-background="new 0 0 1101 430" xml:space="preserve">
<path fill="#000000" opacity="1.000000" stroke="none" 
	d="
M759.000000,431.000000 
	C506.000000,431.000000 253.500000,431.000000 1.000000,431.000000 
	C1.000000,287.666656 1.000000,144.333328 1.000000,1.000000 
	C368.000000,1.000000 735.000000,1.000000 1102.000000,1.000000 
	C1102.000000,144.333328 1102.000000,287.666656 1102.000000,431.000000 
	C987.833313,431.000000 873.666687,431.000000 759.000000,431.000000 
M217.999817,284.724884 
	C217.333221,276.392487 216.268677,268.069305 216.075699,259.725952 
	C215.526779,235.994812 215.168793,212.256332 215.040878,188.519119 
	C214.873917,157.541412 215.000000,126.562126 215.000000,95.583519 
	C215.000000,93.805664 215.000000,92.027802 215.000000,89.748199 
	C205.762604,89.748199 197.027267,89.748199 187.613647,89.748199 
	C188.110672,97.240143 188.965881,103.945076 188.932312,110.645554 
	C188.737411,149.538559 188.382126,188.431046 187.965790,227.322479 
	C187.861420,237.070709 187.485886,246.822495 186.966507,256.558319 
	C186.090683,272.975647 185.338837,289.411499 183.889603,305.782410 
	C182.794449,318.153625 180.692841,330.435791 178.960464,343.343964 
	C181.447464,342.903229 186.495895,343.296967 187.320450,341.617249 
	C189.650940,336.869751 193.078064,333.711182 196.501083,329.975189 
	C199.678619,326.507141 199.721130,319.868469 200.301071,314.534180 
	C200.441162,313.245728 197.209259,311.643860 195.622757,310.089386 
	C194.946564,309.426819 194.652725,308.349487 193.939911,307.754303 
	C192.649750,306.676941 191.175629,305.819946 189.148148,304.442993 
	C189.210953,304.371399 189.729401,303.590851 190.424728,303.029388 
	C191.673782,302.020844 193.656082,301.427094 194.227875,300.161255 
	C196.338562,295.488678 204.383926,293.163879 208.077362,298.624054 
	C209.646988,300.944489 210.880188,303.492462 212.266312,305.937012 
	C212.201996,304.763397 212.137695,303.589752 212.073380,302.416107 
	C210.020325,307.024597 207.967270,311.633057 205.914215,316.241547 
	C205.022446,315.347443 204.130661,314.453308 203.238892,313.559174 
	C203.492584,315.281311 203.909180,316.997650 203.970673,318.726624 
	C204.189758,324.886627 204.489136,330.877960 211.723541,333.415710 
	C212.711624,333.762299 213.498108,335.294708 213.954453,336.445953 
	C216.707077,343.390259 216.665802,343.406616 225.161041,342.614899 
	C223.441772,333.272919 221.307373,324.019745 220.133774,314.646301 
	C218.932343,305.050568 218.672180,295.337036 217.999817,284.724884 
M176.966476,150.808090 
	C174.311005,139.873306 171.780121,128.906189 168.953003,118.015976 
	C167.275146,111.552742 165.130417,105.210709 162.966324,98.056213 
	C157.022858,101.800705 151.890884,105.033928 147.282364,107.937370 
	C177.609421,187.368301 176.486481,265.373566 141.776321,342.999298 
	C149.359436,342.999298 156.510117,343.116394 163.649094,342.879913 
	C164.792084,342.842072 166.619431,341.400604 166.885193,340.305756 
	C170.071381,327.179962 173.725800,314.110107 175.865295,300.801819 
	C178.859222,282.178619 181.675110,263.421600 182.713379,244.619446 
	C183.707474,226.617416 182.399704,208.482880 181.947800,190.410492 
	C181.846176,186.346649 181.166885,182.289795 180.632370,178.245743 
	C179.461990,169.390869 178.213959,160.546265 176.966476,150.808090 
M248.960266,309.654327 
	C248.021317,306.928253 246.954163,304.238739 246.163620,301.470306 
	C239.582397,278.423584 235.534576,254.904053 235.167801,230.960632 
	C234.935776,215.814438 235.928131,200.610764 237.142593,185.494843 
	C237.944397,175.515167 239.366257,165.453445 241.847961,155.771255 
	C245.661453,140.893341 250.648712,126.317314 255.054565,111.588257 
	C255.413712,110.387642 255.677795,108.269005 255.063400,107.808838 
	C250.534225,104.416588 245.770462,101.337578 240.472412,97.747948 
	C214.735168,180.134201 214.353012,261.330383 237.021957,342.751465 
	C245.645798,342.751465 253.719101,342.751465 261.579865,342.751465 
	C257.347931,331.894684 253.173737,321.186005 248.960266,309.654327 
M159.003159,264.575317 
	C160.335114,254.922989 162.684296,245.279892 162.772079,235.616257 
	C162.921799,219.136078 162.679504,202.518402 160.699814,186.189087 
	C158.557159,168.515488 154.051102,151.150864 146.986801,134.636108 
	C144.388794,128.562515 141.583267,122.577705 138.484604,115.690430 
	C137.457245,117.330048 137.306458,117.801758 136.983856,118.051704 
	C129.088791,124.168739 130.978394,130.079819 135.221176,138.162857 
	C145.549850,157.840271 151.588379,179.285629 152.704361,201.463928 
	C153.530090,217.873886 153.022522,234.621048 150.642212,250.856354 
	C147.395599,273.000305 140.733032,294.501373 128.004013,313.339752 
	C122.890259,320.907867 116.302940,327.513763 110.104111,334.299805 
	C107.395630,337.264862 103.978645,339.582703 99.931770,342.997437 
	C109.545067,342.997437 117.822838,343.088043 126.094154,342.898102 
	C127.310699,342.870178 128.962448,341.795685 129.619858,340.720520 
	C133.384537,334.563843 137.329208,328.461365 140.435684,321.968689 
	C149.053055,303.957947 155.490616,285.176666 159.003159,264.575317 
M245.033020,269.202881 
	C245.293976,269.628143 245.708313,270.024780 245.793869,270.482819 
	C250.118103,293.629547 258.911194,315.022278 270.633362,335.370880 
	C273.737274,340.759003 276.888428,344.058594 283.708130,343.145447 
	C289.107391,342.422546 294.681000,343.026001 300.176544,342.975006 
	C301.131866,342.966125 302.084167,342.632141 303.995575,342.263733 
	C289.236420,333.251343 279.415955,321.115295 271.659973,307.175629 
	C256.760773,280.397705 251.620987,251.120163 250.087906,221.005325 
	C249.805374,215.455368 250.380005,209.811935 251.061661,204.273499 
	C252.349060,193.813309 253.429092,183.275070 255.637787,172.993195 
	C258.886932,157.867798 265.157959,143.773712 272.334106,130.090744 
	C272.954437,128.907944 273.461487,126.861687 272.873718,125.992126 
	C270.635559,122.680908 267.926666,119.687881 264.735260,115.767105 
	C260.997559,124.585358 257.334717,132.210083 254.488800,140.128418 
	C245.290344,165.721817 240.665710,192.081955 240.863266,219.389542 
	C240.982407,235.857590 242.046188,252.147781 245.033020,269.202881 
M833.481567,294.010834 
	C841.674866,285.998291 844.088562,276.338074 843.184998,265.012085 
	C842.381714,254.941742 838.557922,246.892822 830.562683,241.213226 
	C816.714233,231.375717 796.998779,232.510529 785.169739,244.691391 
	C775.624084,254.520996 774.221985,266.972900 777.705627,280.380432 
	C783.975403,304.511261 817.456055,309.767303 833.481567,294.010834 
M771.975281,274.049896 
	C771.983521,271.221527 772.102844,268.388306 771.980530,265.565613 
	C771.490295,254.254959 764.053467,242.431381 752.312561,238.583160 
	C739.559265,234.403061 726.929077,236.055862 714.229126,237.150513 
	C714.229126,258.725983 714.229126,279.807037 714.229126,302.000000 
	C722.184814,302.000000 729.923889,301.717133 737.635376,302.057983 
	C754.509216,302.803802 769.230042,291.994995 771.975281,274.049896 
M446.000000,246.563721 
	C446.000000,263.391113 445.942078,280.219055 446.091339,297.045105 
	C446.105957,298.693146 447.276855,301.693695 448.110260,301.765839 
	C459.326599,302.737061 470.561340,304.528076 481.754822,301.054932 
	C489.377380,298.689789 493.896973,293.726471 494.895294,286.074615 
	C495.925262,278.180267 493.099182,271.820374 485.159149,268.528992 
	C492.537445,264.337616 492.502228,257.437958 491.883850,250.740280 
	C491.273407,244.128448 486.929688,239.985016 480.735138,238.043915 
	C469.184174,234.424347 457.657715,235.898483 446.000000,238.230988 
	C446.000000,240.946426 446.000000,243.267349 446.000000,246.563721 
M898.014709,295.521393 
	C894.169189,289.072113 890.323669,282.622864 886.374146,275.999207 
	C892.461548,272.569031 895.762939,267.694977 896.725647,261.532471 
	C898.099304,252.739609 896.445557,241.503265 883.455627,237.852737 
	C871.599426,234.520828 859.963379,235.917633 848.000000,238.194351 
	C848.000000,256.061249 848.000000,273.689789 848.000000,291.318359 
	C848.000000,303.149078 847.998352,303.131683 859.847778,302.011230 
	C862.659241,301.745392 864.199341,300.763336 864.069641,297.488586 
	C863.827332,291.370972 863.999939,285.236969 863.999939,277.635986 
	C867.277649,279.231415 870.540344,279.747833 871.755005,281.604279 
	C876.036926,288.148438 879.616516,295.152191 883.668091,302.346802 
	C889.446472,301.851776 895.199890,301.358917 901.378540,300.829620 
	C900.173462,298.783691 899.369751,297.419159 898.014709,295.521393 
M605.727722,300.765747 
	C601.013367,292.504486 596.299072,284.243225 591.605713,276.018707 
	C597.646484,272.028351 600.569275,268.426727 601.726440,261.407501 
	C603.182983,252.571777 601.445557,241.427475 588.364075,237.798660 
	C576.541382,234.519058 564.888550,235.842575 553.408203,238.120224 
	C553.162842,238.682526 553.039429,238.833420 553.039307,238.984436 
	C553.020264,256.461304 552.894958,273.939117 553.039246,291.414703 
	C553.141113,303.746857 550.430176,301.808380 564.438782,302.004059 
	C567.948120,302.053070 569.246826,300.500153 569.076111,296.898529 
	C568.795166,290.969971 569.000000,285.018372 569.000000,277.149567 
	C572.501160,279.299652 575.531616,280.163757 576.859619,282.160278 
	C581.104187,288.541626 584.717285,295.342987 588.775146,302.328156 
	C594.154663,301.880615 599.537964,301.432739 605.727722,300.765747 
M995.397949,299.068054 
	C1003.598328,294.125793 1004.710388,286.214172 1003.931030,277.783630 
	C1003.335876,271.345245 999.254089,267.214142 993.426758,264.933411 
	C987.931763,262.782776 982.215210,261.182892 976.780457,258.901672 
	C974.653809,258.009064 973.029114,255.920593 971.175842,254.376755 
	C973.289673,252.920868 975.257935,250.543839 977.544800,250.182312 
	C984.327209,249.110077 990.627380,251.155579 996.694885,255.432587 
	C997.595764,254.312683 998.371094,253.217987 999.276550,252.244354 
	C1005.418579,245.639603 1004.117920,241.035538 995.656616,237.890732 
	C988.130249,235.093369 980.503296,234.325989 972.784790,236.074554 
	C963.988586,238.067276 958.197571,242.570160 956.147827,252.197205 
	C954.545654,259.722107 958.693848,269.668121 966.588684,272.166595 
	C972.674744,274.092682 978.797363,275.988342 984.669006,278.456116 
	C986.502869,279.226929 987.571594,281.818176 988.990540,283.576141 
	C986.875244,285.050568 984.887634,287.521515 982.620605,287.812012 
	C975.902832,288.672821 969.431946,287.538422 963.617065,283.423218 
	C962.567444,282.680389 959.569946,283.269165 958.500732,284.305145 
	C956.864319,285.890564 956.115295,288.395386 955.002625,290.516815 
	C953.440063,293.496429 954.047485,295.286774 957.228149,297.125610 
	C969.451904,304.192566 981.927429,304.838501 995.397949,299.068054 
M666.482056,291.011658 
	C669.985291,281.561493 673.477417,272.107178 677.016907,262.670563 
	C677.249634,262.050171 677.843323,261.565186 678.269165,261.017273 
	C678.849304,261.577606 679.696167,262.032562 679.966064,262.715546 
	C681.668213,267.022339 683.242249,271.379761 684.889526,275.803589 
	C674.268982,276.386871 674.268982,276.386871 672.041443,289.000000 
	C675.055176,289.000000 677.991943,289.000000 680.928650,289.000000 
	C690.043030,289.000000 690.185486,288.954132 692.925903,297.466583 
	C694.003967,300.815247 695.904785,302.269318 699.240479,301.983551 
	C702.797363,301.678833 706.343262,301.244781 710.183472,300.836426 
	C709.846130,299.604431 709.662781,298.674438 709.340271,297.795441 
	C702.785339,279.927246 696.213379,262.065277 689.647644,244.201035 
	C688.168396,240.176300 686.749512,235.978683 681.341553,236.153381 
	C678.108765,236.257812 674.707458,236.280563 671.744385,237.347122 
	C670.345337,237.850708 669.608215,240.649216 668.895996,242.530823 
	C664.536011,254.048950 660.314758,265.619537 655.955444,277.137909 
	C652.992737,284.966064 649.880066,292.737488 646.644104,301.021515 
	C648.583252,301.021515 649.780884,300.808807 650.875854,301.054138 
	C663.030457,303.777496 663.857239,300.510773 666.482056,291.011658 
M536.439331,301.000000 
	C538.877136,301.000000 541.314880,301.000000 543.731567,301.000000 
	C543.731567,296.057770 543.731567,291.652191 543.731567,286.860718 
	C534.058289,286.860718 524.646912,286.860718 515.270630,286.860718 
	C515.270630,282.719360 515.270630,278.979828 515.270630,274.855347 
	C523.612732,274.855347 531.689575,274.855347 539.726196,274.855347 
	C539.726196,270.379883 539.726196,266.307587 539.726196,261.850800 
	C531.379639,261.850800 523.300232,261.850800 515.275635,261.850800 
	C515.275635,258.042450 515.275635,254.636536 515.275635,250.846954 
	C524.622192,250.846954 533.699463,250.846954 542.721558,250.846954 
	C542.721558,246.037689 542.721558,241.631943 542.721558,237.277405 
	C528.372437,237.277405 514.303467,237.277405 500.273529,237.277405 
	C500.273529,258.622711 500.273529,279.689453 500.273529,301.000000 
	C512.182312,301.000000 523.819092,301.000000 536.439331,301.000000 
M906.000000,274.500000 
	C906.000000,283.259491 906.000000,292.018982 906.000000,301.000000 
	C919.190552,301.000000 931.821594,301.000000 944.452698,300.999939 
	C945.118774,300.999939 946.002686,301.273315 946.410583,300.948730 
	C947.702454,299.920563 949.339783,298.862488 949.861389,297.452606 
	C950.457458,295.841370 949.812500,293.816925 950.038147,292.013489 
	C950.538208,288.016266 948.930969,286.777161 944.963074,286.917206 
	C937.046692,287.196564 929.113403,287.000000 921.292480,287.000000 
	C921.292480,282.672058 921.292480,278.932800 921.292480,274.817749 
	C929.654297,274.817749 937.729736,274.817749 945.711792,274.817749 
	C945.711792,270.348053 945.711792,266.276917 945.711792,261.827637 
	C937.353516,261.827637 929.276978,261.827637 921.283081,261.827637 
	C921.283081,258.025055 921.283081,254.619980 921.283081,250.999878 
	C929.367188,250.999878 937.172119,250.903534 944.972595,251.048248 
	C948.008301,251.104584 949.101685,250.022293 949.043762,246.981049 
	C948.817017,235.071777 950.298340,237.191162 939.447937,237.001892 
	C938.615662,236.987381 937.782898,237.000000 936.950317,237.000000 
	C926.696777,237.000000 916.443298,237.000000 906.000000,237.000000 
	C906.000000,249.561264 906.000000,261.530640 906.000000,274.500000 
M615.462646,251.000000 
	C617.897217,251.000000 620.331726,251.000000 623.000000,251.000000 
	C623.000000,264.681885 623.000000,277.816284 623.000000,290.950684 
	C623.000000,302.129120 623.002686,301.939880 634.108582,302.097809 
	C638.259216,302.156860 639.128662,300.637238 639.075928,296.842255 
	C638.883789,283.018768 638.993225,269.190979 639.010376,255.364838 
	C639.012146,253.940704 639.156738,252.516739 639.244629,250.918533 
	C645.306641,250.918533 650.942993,250.918533 657.224976,250.918533 
	C657.224976,246.217041 657.224976,241.718048 657.224976,237.280365 
	C639.373901,237.280365 622.299316,237.280365 605.282410,237.280365 
	C605.282410,241.971497 605.282410,246.376938 605.282410,251.000000 
	C608.538330,251.000000 611.513977,251.000000 615.462646,251.000000 
M369.034393,237.890839 
	C369.034393,258.804718 369.034393,279.718597 369.034393,300.632629 
	C383.265625,300.632629 397.104767,300.632629 410.636658,300.632629 
	C410.636658,295.856293 410.636658,291.452545 410.636658,286.683899 
	C401.540558,286.683899 392.806458,286.683899 383.908203,286.683899 
	C383.908203,270.018158 383.908203,253.737762 383.908203,236.337097 
	C378.938202,236.593750 374.213074,236.837753 369.034393,237.890839 
M695.000000,175.544540 
	C695.000000,172.761658 695.000000,169.978760 695.000000,167.234482 
	C686.436707,166.726532 686.454956,166.732437 683.998352,174.326370 
	C683.061157,177.223450 682.062195,180.102768 680.994568,182.953949 
	C680.714539,183.701782 680.072632,184.314117 679.596863,184.988617 
	C679.059387,184.378662 678.285278,183.855103 678.025513,183.143723 
	C676.926941,180.135513 676.026367,177.055740 674.971008,174.030884 
	C672.317383,166.424973 672.299500,166.431213 664.000366,167.486771 
	C664.000366,181.403320 664.066467,195.364151 663.952515,209.323532 
	C663.925049,212.691711 665.672424,213.041321 668.362488,213.054962 
	C671.221497,213.069458 673.255554,212.773529 673.050476,209.095993 
	C672.827576,205.098526 672.999878,201.079010 672.999878,197.069107 
	C673.440247,197.015686 673.880615,196.962265 674.320923,196.908844 
	C674.881042,198.446304 675.191284,200.149475 676.070557,201.475266 
	C676.976562,202.841400 678.301941,204.460205 679.705444,204.765350 
	C680.539795,204.946747 682.128723,202.961426 682.924133,201.670410 
	C683.808655,200.234879 684.176941,198.481277 684.769958,196.866165 
	C685.179993,196.960327 685.589966,197.054504 686.000000,197.148666 
	C686.000000,200.902008 686.177124,204.666199 685.947876,208.405502 
	C685.738098,211.827652 686.863647,213.133408 690.447571,213.105621 
	C693.889465,213.078949 695.131653,212.061707 695.068420,208.513809 
	C694.878479,197.857361 695.000000,187.195374 695.000000,175.544540 
M434.272797,237.058243 
	C429.528778,237.058243 424.784760,237.058243 420.000000,237.058243 
	C420.000000,255.864380 420.000000,274.004761 420.000000,292.145111 
	C420.000000,302.167480 420.001282,302.004456 430.289490,302.085052 
	C434.085266,302.114746 435.099365,300.816406 435.069153,297.169647 
	C434.905029,277.364563 434.962982,257.557617 434.272797,237.058243 
M643.001282,195.973724 
	C643.317200,195.303467 643.633118,194.633194 644.230225,193.366364 
	C645.285095,196.246368 646.076904,198.309326 646.795715,200.397400 
	C647.577515,202.668579 648.285400,204.965073 649.036072,207.247055 
	C651.108093,213.545227 651.705750,213.855331 658.691895,212.387207 
	C658.691895,197.279175 658.691895,182.201172 658.691895,167.317398 
	C655.967957,167.317398 653.559204,167.317398 650.563232,167.317398 
	C650.563232,173.411301 650.563232,179.196503 650.563232,184.981705 
	C650.238220,185.011780 649.913208,185.041855 649.588196,185.071945 
	C647.318359,179.037949 645.048462,173.003952 642.915222,167.333023 
	C639.930664,167.333023 637.529724,167.333023 635.318481,167.333023 
	C635.318481,182.745514 635.318481,197.823364 635.318481,212.670715 
	C638.052856,212.670715 640.462097,212.670715 642.807983,212.670715 
	C642.899475,212.021179 642.983215,211.700104 642.984009,211.378830 
	C642.995728,206.547180 642.996643,201.715530 643.001282,195.973724 
M727.628418,212.999680 
	C729.788269,212.999756 731.951050,213.072052 734.107483,212.986694 
	C741.211853,212.705490 746.237549,209.712708 746.734375,204.083801 
	C747.148621,199.389725 745.776306,194.538406 745.200806,189.756058 
	C745.110474,189.005692 744.882141,188.223206 745.004211,187.504227 
	C745.615540,183.903564 746.898682,180.312073 746.855164,176.730621 
	C746.795532,171.825897 742.056519,167.209045 737.655579,167.035049 
	C733.556274,166.873001 729.445496,167.000458 725.003296,167.000458 
	C725.003296,182.015533 724.983154,196.596436 725.074036,211.176651 
	C725.077881,211.786285 726.117920,212.389465 727.628418,212.999680 
M607.000000,199.371582 
	C607.000000,200.035538 606.999878,200.699478 607.000000,201.363434 
	C607.001099,208.003265 609.923035,212.037689 615.420227,212.989716 
	C621.949219,214.120438 628.174438,211.100021 628.837463,204.490768 
	C629.839172,194.505936 629.320984,184.327560 628.870544,174.257294 
	C628.676453,169.917206 622.226624,165.748383 617.680176,166.045746 
	C611.700684,166.436874 607.053650,170.930618 607.013062,176.493439 
	C606.959778,183.796494 607.000000,191.100235 607.000000,199.371582 
M774.000000,194.459915 
	C774.000000,189.146576 773.857422,183.828461 774.035400,178.521088 
	C774.267212,171.609100 770.421387,166.971283 762.661743,166.325302 
	C755.646912,165.741318 751.012878,170.863800 751.002258,178.560333 
	C750.991882,186.032196 750.997681,193.504089 751.000671,200.975967 
	C751.003662,208.481873 755.343567,213.008331 762.522339,212.999985 
	C769.610474,212.991745 773.947327,208.430420 773.998169,200.921051 
	C774.010559,199.094681 774.000000,197.268143 774.000000,194.459915 
M718.253967,192.946808 
	C718.575684,190.780090 718.897400,188.613388 719.217529,186.457245 
	C707.280884,185.143082 707.280884,185.143082 708.452820,174.979874 
	C712.477966,174.979874 716.568909,174.979874 720.799194,174.979874 
	C720.799194,172.182617 720.799194,169.779251 720.799194,167.206238 
	C713.858643,167.206238 707.119507,167.206238 700.200195,167.206238 
	C700.200195,182.477417 700.200195,197.542206 700.200195,213.000000 
	C705.510620,213.000000 710.630920,213.000000 715.751160,213.000000 
	C717.378845,213.000000 719.006531,213.000000 720.587463,213.000000 
	C721.536926,204.005173 721.536926,204.005005 713.216431,204.000122 
	C711.595642,203.999176 709.974854,204.000000 708.403320,204.000000 
	C707.281982,193.008362 707.281982,193.008362 718.253967,192.946808 
M602.181274,180.958511 
	C604.033081,174.706680 600.884460,168.425354 595.184753,167.000824 
	C587.825745,165.161591 581.875366,167.951355 581.158142,174.727051 
	C580.171631,184.048416 579.860413,193.508987 580.188232,202.877441 
	C580.400085,208.931839 585.015259,212.618439 589.988159,213.044739 
	C597.906250,213.723511 603.859741,208.408875 602.638000,198.019516 
	C599.084167,198.758896 593.415710,195.234634 593.806824,203.206879 
	C593.833069,203.743530 592.051575,204.846313 591.153442,204.802994 
	C590.407043,204.766998 589.117920,203.441544 589.104675,202.669403 
	C588.958069,194.178131 588.957764,185.682312 589.115295,177.191391 
	C589.129028,176.452408 590.693726,175.043930 591.276611,175.168579 
	C592.287659,175.384811 593.414124,176.400055 593.892700,177.374603 
	C594.333740,178.272705 593.986572,179.557831 593.986572,180.997101 
	C596.653442,180.997101 598.959473,180.997101 602.181274,180.958511 
M785.999756,169.698013 
	C784.948730,163.925507 780.794495,168.558777 778.208740,166.737701 
	C778.208740,182.488602 778.208740,197.556625 778.208740,213.000000 
	C783.697449,213.000000 788.990906,212.864655 794.273071,213.049988 
	C797.520325,213.163910 799.099304,212.434128 799.121277,208.687943 
	C799.143738,204.859283 797.775513,203.629532 794.145508,203.954834 
	C791.551575,204.187286 788.919983,204.000000 786.000000,204.000000 
	C786.000000,192.582870 786.000000,181.625443 785.999756,169.698013 
M814.406006,194.000000 
	C815.838501,194.000000 817.270935,194.000000 818.800903,194.000000 
	C818.800903,191.146332 818.800903,188.761292 818.800903,186.317841 
	C814.097229,186.317841 809.601074,186.317841 805.295471,186.317841 
	C805.295471,189.031769 805.295471,191.422501 805.295471,194.000000 
	C808.203979,194.000000 810.821228,194.000000 814.406006,194.000000 
M554.004395,187.636154 
	C554.004395,189.699738 554.004395,191.763336 554.004395,193.747528 
	C558.999084,193.747528 563.376648,193.747528 567.776855,193.747528 
	C567.776855,191.102432 567.776855,188.715134 567.776855,185.711151 
	C563.037354,186.047501 558.549805,186.365967 554.004395,187.636154 
M306.966766,338.852264 
	C307.937439,345.879120 313.015442,339.934387 315.839966,342.450073 
	C315.839966,339.838654 315.839966,338.065643 315.839966,336.492706 
	C312.150116,336.319214 308.635010,336.153931 305.119904,335.988678 
	C305.030487,336.304138 304.941071,336.619598 304.851654,336.935059 
	C305.414001,337.319183 305.976318,337.703339 306.966766,338.852264 
z"/>
<path fill="#FFFFFF" opacity="1.000000" stroke="none" 
	d="
M217.999908,285.199951 
	C218.672180,295.337036 218.932343,305.050568 220.133774,314.646301 
	C221.307373,324.019745 223.441772,333.272919 225.161041,342.614899 
	C216.665802,343.406616 216.707077,343.390259 213.954453,336.445953 
	C213.498108,335.294708 212.711624,333.762299 211.723541,333.415710 
	C204.489136,330.877960 204.189758,324.886627 203.970673,318.726624 
	C203.909180,316.997650 203.492584,315.281311 203.238892,313.559174 
	C204.130661,314.453308 205.022446,315.347443 205.914215,316.241547 
	C207.967270,311.633057 210.020325,307.024597 212.073380,302.416107 
	C212.137695,303.589752 212.201996,304.763397 212.266312,305.937012 
	C210.880188,303.492462 209.646988,300.944489 208.077362,298.624054 
	C204.383926,293.163879 196.338562,295.488678 194.227875,300.161255 
	C193.656082,301.427094 191.673782,302.020844 190.424728,303.029388 
	C189.729401,303.590851 189.210953,304.371399 189.148148,304.442993 
	C191.175629,305.819946 192.649750,306.676941 193.939911,307.754303 
	C194.652725,308.349487 194.946564,309.426819 195.622757,310.089386 
	C197.209259,311.643860 200.441162,313.245728 200.301071,314.534180 
	C199.721130,319.868469 199.678619,326.507141 196.501083,329.975189 
	C193.078064,333.711182 189.650940,336.869751 187.320450,341.617249 
	C186.495895,343.296967 181.447464,342.903229 178.960464,343.343964 
	C180.692841,330.435791 182.794449,318.153625 183.889603,305.782410 
	C185.338837,289.411499 186.090683,272.975647 186.966507,256.558319 
	C187.485886,246.822495 187.861420,237.070709 187.965790,227.322479 
	C188.382126,188.431046 188.737411,149.538559 188.932312,110.645554 
	C188.965881,103.945076 188.110672,97.240143 187.613647,89.748199 
	C197.027267,89.748199 205.762604,89.748199 215.000000,89.748199 
	C215.000000,92.027802 215.000000,93.805664 215.000000,95.583519 
	C215.000000,126.562126 214.873917,157.541412 215.040878,188.519119 
	C215.168793,212.256332 215.526779,235.994812 216.075699,259.725952 
	C216.268677,268.069305 217.333221,276.392487 217.999908,285.199951 
z"/>
<path fill="#FFFFFF" opacity="1.000000" stroke="none" 
	d="
M176.982056,151.252777 
	C178.213959,160.546265 179.461990,169.390869 180.632370,178.245743 
	C181.166885,182.289795 181.846176,186.346649 181.947800,190.410492 
	C182.399704,208.482880 183.707474,226.617416 182.713379,244.619446 
	C181.675110,263.421600 178.859222,282.178619 175.865295,300.801819 
	C173.725800,314.110107 170.071381,327.179962 166.885193,340.305756 
	C166.619431,341.400604 164.792084,342.842072 163.649094,342.879913 
	C156.510117,343.116394 149.359436,342.999298 141.776321,342.999298 
	C176.486481,265.373566 177.609421,187.368301 147.282364,107.937370 
	C151.890884,105.033928 157.022858,101.800705 162.966324,98.056213 
	C165.130417,105.210709 167.275146,111.552742 168.953003,118.015976 
	C171.780121,128.906189 174.311005,139.873306 176.982056,151.252777 
z"/>
<path fill="#FFFFFF" opacity="1.000000" stroke="none" 
	d="
M248.979904,310.065826 
	C253.173737,321.186005 257.347931,331.894684 261.579865,342.751465 
	C253.719101,342.751465 245.645798,342.751465 237.021957,342.751465 
	C214.353012,261.330383 214.735168,180.134201 240.472412,97.747948 
	C245.770462,101.337578 250.534225,104.416588 255.063400,107.808838 
	C255.677795,108.269005 255.413712,110.387642 255.054565,111.588257 
	C250.648712,126.317314 245.661453,140.893341 241.847961,155.771255 
	C239.366257,165.453445 237.944397,175.515167 237.142593,185.494843 
	C235.928131,200.610764 234.935776,215.814438 235.167801,230.960632 
	C235.534576,254.904053 239.582397,278.423584 246.163620,301.470306 
	C246.954163,304.238739 248.021317,306.928253 248.979904,310.065826 
z"/>
<path fill="#FFFFFF" opacity="1.000000" stroke="none" 
	d="
M159.001602,265.018219 
	C155.490616,285.176666 149.053055,303.957947 140.435684,321.968689 
	C137.329208,328.461365 133.384537,334.563843 129.619858,340.720520 
	C128.962448,341.795685 127.310699,342.870178 126.094154,342.898102 
	C117.822838,343.088043 109.545067,342.997437 99.931770,342.997437 
	C103.978645,339.582703 107.395630,337.264862 110.104111,334.299805 
	C116.302940,327.513763 122.890259,320.907867 128.004013,313.339752 
	C140.733032,294.501373 147.395599,273.000305 150.642212,250.856354 
	C153.022522,234.621048 153.530090,217.873886 152.704361,201.463928 
	C151.588379,179.285629 145.549850,157.840271 135.221176,138.162857 
	C130.978394,130.079819 129.088791,124.168739 136.983856,118.051704 
	C137.306458,117.801758 137.457245,117.330048 138.484604,115.690430 
	C141.583267,122.577705 144.388794,128.562515 146.986801,134.636108 
	C154.051102,151.150864 158.557159,168.515488 160.699814,186.189087 
	C162.679504,202.518402 162.921799,219.136078 162.772079,235.616257 
	C162.684296,245.279892 160.335114,254.922989 159.001602,265.018219 
z"/>
<path fill="#FFFFFF" opacity="1.000000" stroke="none" 
	d="
M245.017670,268.765656 
	C242.046188,252.147781 240.982407,235.857590 240.863266,219.389542 
	C240.665710,192.081955 245.290344,165.721817 254.488800,140.128418 
	C257.334717,132.210083 260.997559,124.585358 264.735260,115.767105 
	C267.926666,119.687881 270.635559,122.680908 272.873718,125.992126 
	C273.461487,126.861687 272.954437,128.907944 272.334106,130.090744 
	C265.157959,143.773712 258.886932,157.867798 255.637787,172.993195 
	C253.429092,183.275070 252.349060,193.813309 251.061661,204.273499 
	C250.380005,209.811935 249.805374,215.455368 250.087906,221.005325 
	C251.620987,251.120163 256.760773,280.397705 271.659973,307.175629 
	C279.415955,321.115295 289.236420,333.251343 303.995575,342.263733 
	C302.084167,342.632141 301.131866,342.966125 300.176544,342.975006 
	C294.681000,343.026001 289.107391,342.422546 283.708130,343.145447 
	C276.888428,344.058594 273.737274,340.759003 270.633362,335.370880 
	C258.911194,315.022278 250.118103,293.629547 245.793869,270.482819 
	C245.708313,270.024780 245.293976,269.628143 245.017670,268.765656 
z"/>
<path fill="#FFFFFF" opacity="1.000000" stroke="none" 
	d="
M833.229126,294.273743 
	C817.456055,309.767303 783.975403,304.511261 777.705627,280.380432 
	C774.221985,266.972900 775.624084,254.520996 785.169739,244.691391 
	C796.998779,232.510529 816.714233,231.375717 830.562683,241.213226 
	C838.557922,246.892822 842.381714,254.941742 843.184998,265.012085 
	C844.088562,276.338074 841.674866,285.998291 833.229126,294.273743 
M793.000061,270.318268 
	C793.339539,272.214966 793.408264,274.210999 794.061829,275.992462 
	C798.727539,288.710419 812.475525,292.208069 821.258789,283.171936 
	C827.236450,277.022125 827.357605,269.688385 825.368408,261.682404 
	C823.662781,254.817978 816.270691,250.332169 810.932861,249.925903 
	C801.006409,249.170364 793.247437,257.396332 793.000061,270.318268 
z"/>
<path fill="#FFFFFF" opacity="1.000000" stroke="none" 
	d="
M771.805359,274.469055 
	C769.230042,291.994995 754.509216,302.803802 737.635376,302.057983 
	C729.923889,301.717133 722.184814,302.000000 714.229126,302.000000 
	C714.229126,279.807037 714.229126,258.725983 714.229126,237.150513 
	C726.929077,236.055862 739.559265,234.403061 752.312561,238.583160 
	C764.053467,242.431381 771.490295,254.254959 771.980530,265.565613 
	C772.102844,268.388306 771.983521,271.221527 771.805359,274.469055 
M738.050354,287.976105 
	C738.620850,287.665283 739.192627,287.081116 739.761719,287.083649 
	C753.546082,287.145996 758.267883,267.597321 752.121704,258.471436 
	C747.247192,251.233795 738.925659,249.750275 730.329529,251.656769 
	C730.329529,263.787415 730.329529,275.863861 730.329529,287.998383 
	C732.822632,287.998383 734.986267,287.998383 738.050354,287.976105 
z"/>
<path fill="#FFFFFF" opacity="1.000000" stroke="none" 
	d="
M446.000000,246.076004 
	C446.000000,243.267349 446.000000,240.946426 446.000000,238.230988 
	C457.657715,235.898483 469.184174,234.424347 480.735138,238.043915 
	C486.929688,239.985016 491.273407,244.128448 491.883850,250.740280 
	C492.502228,257.437958 492.537445,264.337616 485.159149,268.528992 
	C493.099182,271.820374 495.925262,278.180267 494.895294,286.074615 
	C493.896973,293.726471 489.377380,298.689789 481.754822,301.054932 
	C470.561340,304.528076 459.326599,302.737061 448.110260,301.765839 
	C447.276855,301.693695 446.105957,298.693146 446.091339,297.045105 
	C445.942078,280.219055 446.000000,263.391113 446.000000,246.076004 
M469.186310,275.000000 
	C466.585388,275.000000 463.984436,275.000000 461.337463,275.000000 
	C461.337463,280.236969 461.337463,285.071533 461.337463,290.000000 
	C464.148865,290.000000 466.623871,290.001984 469.098846,289.999634 
	C475.164917,289.993835 478.653717,287.541779 478.998749,283.044312 
	C479.335999,278.648041 476.405151,276.001648 469.186310,275.000000 
M475.963226,259.283997 
	C478.881317,250.422852 472.014801,247.527588 461.310852,249.377502 
	C461.310852,253.882492 461.310852,258.399597 461.310852,264.199341 
	C466.474915,262.663330 471.004639,261.316010 475.963226,259.283997 
z"/>
<path fill="#FFFFFF" opacity="1.000000" stroke="none" 
	d="
M898.290344,295.788025 
	C899.369751,297.419159 900.173462,298.783691 901.378540,300.829620 
	C895.199890,301.358917 889.446472,301.851776 883.668091,302.346802 
	C879.616516,295.152191 876.036926,288.148438 871.755005,281.604279 
	C870.540344,279.747833 867.277649,279.231415 863.999939,277.635986 
	C863.999939,285.236969 863.827332,291.370972 864.069641,297.488586 
	C864.199341,300.763336 862.659241,301.745392 859.847778,302.011230 
	C847.998352,303.131683 848.000000,303.149078 848.000000,291.318359 
	C848.000000,273.689789 848.000000,256.061249 848.000000,238.194351 
	C859.963379,235.917633 871.599426,234.520828 883.455627,237.852737 
	C896.445557,241.503265 898.099304,252.739609 896.725647,261.532471 
	C895.762939,267.694977 892.461548,272.569031 886.374146,275.999207 
	C890.323669,282.622864 894.169189,289.072113 898.290344,295.788025 
M880.980225,260.039001 
	C880.991943,252.430130 874.282959,247.111618 866.951172,249.112289 
	C865.815674,249.422150 864.198181,250.785324 864.139160,251.743652 
	C863.848083,256.469452 864.006714,261.222961 864.006714,266.187378 
	C870.388916,265.290283 877.277405,268.443512 880.980225,260.039001 
z"/>
<path fill="#FFFFFF" opacity="1.000000" stroke="none" 
	d="
M605.324463,300.875305 
	C599.537964,301.432739 594.154663,301.880615 588.775146,302.328156 
	C584.717285,295.342987 581.104187,288.541626 576.859619,282.160278 
	C575.531616,280.163757 572.501160,279.299652 569.000000,277.149567 
	C569.000000,285.018372 568.795166,290.969971 569.076111,296.898529 
	C569.246826,300.500153 567.948120,302.053070 564.438782,302.004059 
	C550.430176,301.808380 553.141113,303.746857 553.039246,291.414703 
	C552.894958,273.939117 553.020264,256.461304 553.039307,238.984436 
	C553.039429,238.833420 553.162842,238.682526 553.408203,238.120224 
	C564.888550,235.842575 576.541382,234.519058 588.364075,237.798660 
	C601.445557,241.427475 603.182983,252.571777 601.726440,261.407501 
	C600.569275,268.426727 597.646484,272.028351 591.605713,276.018707 
	C596.299072,284.243225 601.013367,292.504486 605.324463,300.875305 
M585.714111,260.821320 
	C586.429260,252.784332 579.450073,246.828491 571.794434,249.168228 
	C570.640808,249.520798 569.211243,251.242493 569.127258,252.417862 
	C568.811890,256.834351 569.000793,261.286835 569.000793,266.000000 
	C572.281555,266.000000 575.077759,265.976776 577.873474,266.005920 
	C581.310547,266.041748 583.889282,264.776520 585.714111,260.821320 
z"/>
<path fill="#FFFFFF" opacity="1.000000" stroke="none" 
	d="
M995.140015,299.356537 
	C981.927429,304.838501 969.451904,304.192566 957.228149,297.125610 
	C954.047485,295.286774 953.440063,293.496429 955.002625,290.516815 
	C956.115295,288.395386 956.864319,285.890564 958.500732,284.305145 
	C959.569946,283.269165 962.567444,282.680389 963.617065,283.423218 
	C969.431946,287.538422 975.902832,288.672821 982.620605,287.812012 
	C984.887634,287.521515 986.875244,285.050568 988.990540,283.576141 
	C987.571594,281.818176 986.502869,279.226929 984.669006,278.456116 
	C978.797363,275.988342 972.674744,274.092682 966.588684,272.166595 
	C958.693848,269.668121 954.545654,259.722107 956.147827,252.197205 
	C958.197571,242.570160 963.988586,238.067276 972.784790,236.074554 
	C980.503296,234.325989 988.130249,235.093369 995.656616,237.890732 
	C1004.117920,241.035538 1005.418579,245.639603 999.276550,252.244354 
	C998.371094,253.217987 997.595764,254.312683 996.694885,255.432587 
	C990.627380,251.155579 984.327209,249.110077 977.544800,250.182312 
	C975.257935,250.543839 973.289673,252.920868 971.175842,254.376770 
	C973.029114,255.920593 974.653809,258.009064 976.780457,258.901672 
	C982.215210,261.182892 987.931763,262.782776 993.426758,264.933411 
	C999.254089,267.214142 1003.335876,271.345245 1003.931030,277.783630 
	C1004.710388,286.214172 1003.598328,294.125793 995.140015,299.356537 
z"/>
<path fill="#FFFFFF" opacity="1.000000" stroke="none" 
	d="
M666.258911,291.352295 
	C663.857239,300.510773 663.030457,303.777496 650.875854,301.054138 
	C649.780884,300.808807 648.583252,301.021515 646.644104,301.021515 
	C649.880066,292.737488 652.992737,284.966064 655.955444,277.137909 
	C660.314758,265.619537 664.536011,254.048950 668.895996,242.530823 
	C669.608215,240.649216 670.345337,237.850708 671.744385,237.347122 
	C674.707458,236.280563 678.108765,236.257812 681.341553,236.153381 
	C686.749512,235.978683 688.168396,240.176300 689.647644,244.201035 
	C696.213379,262.065277 702.785339,279.927246 709.340271,297.795441 
	C709.662781,298.674438 709.846130,299.604431 710.183472,300.836426 
	C706.343262,301.244781 702.797363,301.678833 699.240479,301.983551 
	C695.904785,302.269318 694.003967,300.815247 692.925903,297.466583 
	C690.185486,288.954132 690.043030,289.000000 680.928650,289.000000 
	C677.991943,289.000000 675.055176,289.000000 672.041443,289.000000 
	C674.268982,276.386871 674.268982,276.386871 684.889526,275.803589 
	C683.242249,271.379761 681.668213,267.022339 679.966064,262.715546 
	C679.696167,262.032562 678.849304,261.577606 678.269165,261.017242 
	C677.843323,261.565186 677.249634,262.050171 677.016907,262.670563 
	C673.477417,272.107178 669.985291,281.561493 666.258911,291.352295 
z"/>
<path fill="#FFFFFF" opacity="1.000000" stroke="none" 
	d="
M535.947632,301.000000 
	C523.819092,301.000000 512.182312,301.000000 500.273529,301.000000 
	C500.273529,279.689453 500.273529,258.622711 500.273529,237.277405 
	C514.303467,237.277405 528.372437,237.277405 542.721558,237.277405 
	C542.721558,241.631943 542.721558,246.037689 542.721558,250.846954 
	C533.699463,250.846954 524.622192,250.846954 515.275635,250.846954 
	C515.275635,254.636536 515.275635,258.042450 515.275635,261.850800 
	C523.300232,261.850800 531.379639,261.850800 539.726196,261.850800 
	C539.726196,266.307587 539.726196,270.379883 539.726196,274.855347 
	C531.689575,274.855347 523.612732,274.855347 515.270630,274.855347 
	C515.270630,278.979828 515.270630,282.719360 515.270630,286.860718 
	C524.646912,286.860718 534.058289,286.860718 543.731567,286.860718 
	C543.731567,291.652191 543.731567,296.057770 543.731567,301.000000 
	C541.314880,301.000000 538.877136,301.000000 535.947632,301.000000 
z"/>
<path fill="#FFFFFF" opacity="1.000000" stroke="none" 
	d="
M906.000000,274.000000 
	C906.000000,261.530640 906.000000,249.561264 906.000000,237.000000 
	C916.443298,237.000000 926.696777,237.000000 936.950317,237.000000 
	C937.782898,237.000000 938.615662,236.987381 939.447937,237.001892 
	C950.298340,237.191162 948.817017,235.071777 949.043762,246.981049 
	C949.101685,250.022293 948.008301,251.104584 944.972595,251.048248 
	C937.172119,250.903534 929.367188,250.999878 921.283081,250.999878 
	C921.283081,254.619980 921.283081,258.025055 921.283081,261.827637 
	C929.276978,261.827637 937.353516,261.827637 945.711792,261.827637 
	C945.711792,266.276917 945.711792,270.348053 945.711792,274.817749 
	C937.729736,274.817749 929.654297,274.817749 921.292480,274.817749 
	C921.292480,278.932800 921.292480,282.672058 921.292480,287.000000 
	C929.113403,287.000000 937.046692,287.196564 944.963074,286.917206 
	C948.930969,286.777161 950.538208,288.016266 950.038147,292.013489 
	C949.812500,293.816925 950.457458,295.841370 949.861389,297.452606 
	C949.339783,298.862488 947.702454,299.920563 946.410583,300.948730 
	C946.002686,301.273315 945.118774,300.999939 944.452698,300.999939 
	C931.821594,301.000000 919.190552,301.000000 906.000000,301.000000 
	C906.000000,292.018982 906.000000,283.259491 906.000000,274.000000 
z"/>
<path fill="#FFFFFF" opacity="1.000000" stroke="none" 
	d="
M614.976135,251.000000 
	C611.513977,251.000000 608.538330,251.000000 605.282410,251.000000 
	C605.282410,246.376938 605.282410,241.971497 605.282410,237.280365 
	C622.299316,237.280365 639.373901,237.280365 657.224976,237.280365 
	C657.224976,241.718048 657.224976,246.217041 657.224976,250.918533 
	C650.942993,250.918533 645.306641,250.918533 639.244629,250.918533 
	C639.156738,252.516739 639.012146,253.940704 639.010376,255.364838 
	C638.993225,269.190979 638.883789,283.018768 639.075928,296.842255 
	C639.128662,300.637238 638.259216,302.156860 634.108582,302.097809 
	C623.002686,301.939880 623.000000,302.129120 623.000000,290.950684 
	C623.000000,277.816284 623.000000,264.681885 623.000000,251.000000 
	C620.331726,251.000000 617.897217,251.000000 614.976135,251.000000 
z"/>
<path fill="#FFFFFF" opacity="1.000000" stroke="none" 
	d="
M369.261169,237.486298 
	C374.213074,236.837753 378.938202,236.593750 383.908203,236.337097 
	C383.908203,253.737762 383.908203,270.018158 383.908203,286.683899 
	C392.806458,286.683899 401.540558,286.683899 410.636658,286.683899 
	C410.636658,291.452545 410.636658,295.856293 410.636658,300.632629 
	C397.104767,300.632629 383.265625,300.632629 369.034393,300.632629 
	C369.034393,279.718597 369.034393,258.804718 369.261169,237.486298 
z"/>
<path fill="#FFFFFF" opacity="1.000000" stroke="none" 
	d="
M695.000000,176.040039 
	C695.000000,187.195374 694.878479,197.857361 695.068420,208.513809 
	C695.131653,212.061707 693.889465,213.078949 690.447571,213.105621 
	C686.863647,213.133408 685.738098,211.827652 685.947876,208.405502 
	C686.177124,204.666199 686.000000,200.902008 686.000000,197.148666 
	C685.589966,197.054504 685.179993,196.960327 684.769958,196.866165 
	C684.176941,198.481277 683.808655,200.234879 682.924133,201.670410 
	C682.128723,202.961426 680.539795,204.946747 679.705444,204.765350 
	C678.301941,204.460205 676.976562,202.841400 676.070557,201.475266 
	C675.191284,200.149475 674.881042,198.446304 674.320923,196.908844 
	C673.880615,196.962265 673.440247,197.015686 672.999878,197.069107 
	C672.999878,201.079010 672.827576,205.098526 673.050476,209.095993 
	C673.255554,212.773529 671.221497,213.069458 668.362488,213.054962 
	C665.672424,213.041321 663.925049,212.691711 663.952515,209.323532 
	C664.066467,195.364151 664.000366,181.403320 664.000366,167.486771 
	C672.299500,166.431213 672.317383,166.424973 674.971008,174.030884 
	C676.026367,177.055740 676.926941,180.135513 678.025513,183.143723 
	C678.285278,183.855103 679.059387,184.378662 679.596924,184.988647 
	C680.072632,184.314117 680.714539,183.701782 680.994568,182.953949 
	C682.062195,180.102768 683.061157,177.223450 683.998352,174.326370 
	C686.454956,166.732437 686.436707,166.726532 695.000000,167.234482 
	C695.000000,169.978760 695.000000,172.761658 695.000000,176.040039 
z"/>
<path fill="#FFFFFF" opacity="1.000000" stroke="none" 
	d="
M434.608643,237.404770 
	C434.962982,257.557617 434.905029,277.364563 435.069153,297.169647 
	C435.099365,300.816406 434.085266,302.114746 430.289490,302.085052 
	C420.001282,302.004456 420.000000,302.167480 420.000000,292.145111 
	C420.000000,274.004761 420.000000,255.864380 420.000000,237.058243 
	C424.784760,237.058243 429.528778,237.058243 434.608643,237.404770 
z"/>
<path fill="#FFFFFF" opacity="1.000000" stroke="none" 
	d="
M643.000610,196.428802 
	C642.996643,201.715530 642.995728,206.547180 642.984009,211.378830 
	C642.983215,211.700104 642.899475,212.021179 642.807983,212.670715 
	C640.462097,212.670715 638.052856,212.670715 635.318481,212.670715 
	C635.318481,197.823364 635.318481,182.745514 635.318481,167.333023 
	C637.529724,167.333023 639.930664,167.333023 642.915222,167.333023 
	C645.048462,173.003952 647.318359,179.037949 649.588196,185.071945 
	C649.913208,185.041855 650.238220,185.011780 650.563232,184.981705 
	C650.563232,179.196503 650.563232,173.411301 650.563232,167.317398 
	C653.559204,167.317398 655.967957,167.317398 658.691895,167.317398 
	C658.691895,182.201172 658.691895,197.279175 658.691895,212.387207 
	C651.705750,213.855331 651.108093,213.545227 649.036072,207.247055 
	C648.285400,204.965073 647.577515,202.668579 646.795715,200.397400 
	C646.076904,198.309326 645.285095,196.246368 644.230225,193.366364 
	C643.633118,194.633194 643.317200,195.303467 643.000610,196.428802 
z"/>
<path fill="#FFFFFF" opacity="1.000000" stroke="none" 
	d="
M727.151855,212.997665 
	C726.117920,212.389465 725.077881,211.786285 725.074036,211.176651 
	C724.983154,196.596436 725.003296,182.015533 725.003296,167.000458 
	C729.445496,167.000458 733.556274,166.873001 737.655579,167.035049 
	C742.056519,167.209045 746.795532,171.825897 746.855164,176.730621 
	C746.898682,180.312073 745.615540,183.903564 745.004211,187.504227 
	C744.882141,188.223206 745.110474,189.005692 745.200806,189.756058 
	C745.776306,194.538406 747.148621,199.389725 746.734375,204.083801 
	C746.237549,209.712708 741.211853,212.705490 734.107483,212.986694 
	C731.951050,213.072052 729.788269,212.999756 727.151855,212.997665 
M733.000061,194.823288 
	C733.000061,197.777527 733.000061,200.731750 733.000061,204.780945 
	C735.188660,203.789078 737.760803,203.362091 737.998413,202.373795 
	C738.648438,199.670410 738.501038,196.706146 738.133301,193.915833 
	C738.087952,193.571930 734.760193,189.532852 733.000061,194.823288 
M733.001770,176.844162 
	C733.001770,179.487946 733.001770,182.131714 733.001770,186.093948 
	C735.493225,184.572922 737.971191,183.911850 738.561035,182.475433 
	C739.234741,180.834625 738.719238,178.210205 737.751770,176.592468 
	C737.241882,175.739792 734.668945,176.120850 733.001770,176.844162 
z"/>
<path fill="#FFFFFF" opacity="1.000000" stroke="none" 
	d="
M607.000000,198.887634 
	C607.000000,191.100235 606.959778,183.796494 607.013062,176.493439 
	C607.053650,170.930618 611.700684,166.436874 617.680176,166.045746 
	C622.226624,165.748383 628.676453,169.917206 628.870544,174.257294 
	C629.320984,184.327560 629.839172,194.505936 628.837463,204.490768 
	C628.174438,211.100021 621.949219,214.120438 615.420227,212.989716 
	C609.923035,212.037689 607.001099,208.003265 607.000000,201.363434 
	C606.999878,200.699478 607.000000,200.035538 607.000000,198.887634 
M616.361023,203.905197 
	C618.738037,205.954880 620.765625,204.699783 620.859253,202.388489 
	C621.195862,194.083496 621.075745,185.754120 620.852661,177.441360 
	C620.830200,176.603134 619.009583,175.312103 617.899963,175.165482 
	C617.040405,175.051895 615.143860,176.405090 615.149292,177.094894 
	C615.217957,185.812302 615.548279,194.527664 616.361023,203.905197 
z"/>
<path fill="#FFFFFF" opacity="1.000000" stroke="none" 
	d="
M774.000000,194.950806 
	C774.000000,197.268143 774.010559,199.094681 773.998169,200.921051 
	C773.947327,208.430420 769.610474,212.991745 762.522339,212.999985 
	C755.343567,213.008331 751.003662,208.481873 751.000671,200.975967 
	C750.997681,193.504089 750.991882,186.032196 751.002258,178.560333 
	C751.012878,170.863800 755.646912,165.741318 762.661743,166.325302 
	C770.421387,166.971283 774.267212,171.609100 774.035400,178.521088 
	C773.857422,183.828461 774.000000,189.146576 774.000000,194.950806 
M766.000000,184.623978 
	C766.000000,183.300171 765.930847,181.972000 766.014038,180.653442 
	C766.199402,177.716034 765.514587,174.877914 762.141907,175.273682 
	C760.908081,175.418488 759.255859,178.604523 759.142761,180.484283 
	C758.765747,186.749680 759.075989,193.053223 758.964478,199.339340 
	C758.916382,202.049606 759.435181,204.865448 762.348572,204.691132 
	C763.664612,204.612396 765.614441,201.415588 765.834167,199.470490 
	C766.350952,194.895523 765.999878,190.222519 766.000000,184.623978 
z"/>
<path fill="#FFFFFF" opacity="1.000000" stroke="none" 
	d="
M717.787415,192.971466 
	C707.281982,193.008362 707.281982,193.008362 708.403320,204.000000 
	C709.974854,204.000000 711.595642,203.999176 713.216431,204.000122 
	C721.536926,204.005005 721.536926,204.005173 720.587463,213.000000 
	C719.006531,213.000000 717.378845,213.000000 715.751160,213.000000 
	C710.630920,213.000000 705.510620,213.000000 700.200195,213.000000 
	C700.200195,197.542206 700.200195,182.477417 700.200195,167.206238 
	C707.119507,167.206238 713.858643,167.206238 720.799194,167.206238 
	C720.799194,169.779251 720.799194,172.182617 720.799194,174.979874 
	C716.568909,174.979874 712.477966,174.979874 708.452820,174.979874 
	C707.280884,185.143082 707.280884,185.143082 719.217529,186.457245 
	C718.897400,188.613388 718.575684,190.780090 717.787415,192.971466 
z"/>
<path fill="#FFFFFF" opacity="1.000000" stroke="none" 
	d="
M601.723389,180.977814 
	C598.959473,180.997101 596.653442,180.997101 593.986572,180.997101 
	C593.986572,179.557831 594.333740,178.272705 593.892700,177.374603 
	C593.414124,176.400055 592.287659,175.384811 591.276611,175.168579 
	C590.693726,175.043930 589.129028,176.452408 589.115295,177.191391 
	C588.957764,185.682312 588.958069,194.178131 589.104675,202.669403 
	C589.117920,203.441544 590.407043,204.766998 591.153442,204.802994 
	C592.051575,204.846313 593.833069,203.743530 593.806824,203.206879 
	C593.415710,195.234634 599.084167,198.758896 602.638000,198.019516 
	C603.859741,208.408875 597.906250,213.723511 589.988159,213.044739 
	C585.015259,212.618439 580.400085,208.931839 580.188232,202.877441 
	C579.860413,193.508987 580.171631,184.048416 581.158142,174.727051 
	C581.875366,167.951355 587.825745,165.161591 595.184753,167.000824 
	C600.884460,168.425354 604.033081,174.706680 601.723389,180.977814 
z"/>
<path fill="#FFFFFF" opacity="1.000000" stroke="none" 
	d="
M785.999878,170.183014 
	C786.000000,181.625443 786.000000,192.582870 786.000000,204.000000 
	C788.919983,204.000000 791.551575,204.187286 794.145508,203.954834 
	C797.775513,203.629532 799.143738,204.859283 799.121277,208.687943 
	C799.099304,212.434128 797.520325,213.163910 794.273071,213.049988 
	C788.990906,212.864655 783.697449,213.000000 778.208740,213.000000 
	C778.208740,197.556625 778.208740,182.488602 778.208740,166.737701 
	C780.794495,168.558777 784.948730,163.925507 785.999878,170.183014 
z"/>
<path fill="#FFFFFF" opacity="1.000000" stroke="none" 
	d="
M813.922241,194.000000 
	C810.821228,194.000000 808.203979,194.000000 805.295471,194.000000 
	C805.295471,191.422501 805.295471,189.031769 805.295471,186.317841 
	C809.601074,186.317841 814.097229,186.317841 818.800903,186.317841 
	C818.800903,188.761292 818.800903,191.146332 818.800903,194.000000 
	C817.270935,194.000000 815.838501,194.000000 813.922241,194.000000 
z"/>
<path fill="#FFFFFF" opacity="1.000000" stroke="none" 
	d="
M554.033325,187.160309 
	C558.549805,186.365967 563.037354,186.047501 567.776855,185.711151 
	C567.776855,188.715134 567.776855,191.102432 567.776855,193.747528 
	C563.376648,193.747528 558.999084,193.747528 554.004395,193.747528 
	C554.004395,191.763336 554.004395,189.699738 554.033325,187.160309 
z"/>
<path fill="#FFFFFF" opacity="1.000000" stroke="none" 
	d="
M306.752716,338.469849 
	C305.976318,337.703339 305.414001,337.319183 304.851654,336.935059 
	C304.941071,336.619598 305.030487,336.304138 305.119904,335.988678 
	C308.635010,336.153931 312.150116,336.319214 315.839966,336.492706 
	C315.839966,338.065643 315.839966,339.838654 315.839966,342.450073 
	C313.015442,339.934387 307.937439,345.879120 306.752716,338.469849 
z"/>
<path fill="#000000" opacity="1.000000" stroke="none" 
	d="
M793.000000,269.878357 
	C793.247437,257.396332 801.006409,249.170364 810.932861,249.925903 
	C816.270691,250.332169 823.662781,254.817978 825.368408,261.682404 
	C827.357605,269.688385 827.236450,277.022125 821.258789,283.171936 
	C812.475525,292.208069 798.727539,288.710419 794.061829,275.992462 
	C793.408264,274.210999 793.339539,272.214966 793.000000,269.878357 
z"/>
<path fill="#000000" opacity="1.000000" stroke="none" 
	d="
M737.600098,287.987244 
	C734.986267,287.998383 732.822632,287.998383 730.329529,287.998383 
	C730.329529,275.863861 730.329529,263.787415 730.329529,251.656769 
	C738.925659,249.750275 747.247192,251.233795 752.121704,258.471436 
	C758.267883,267.597321 753.546082,287.145996 739.761719,287.083649 
	C739.192627,287.081116 738.620850,287.665283 737.600098,287.987244 
z"/>
<path fill="#000000" opacity="1.000000" stroke="none" 
	d="
M469.638000,275.000000 
	C476.405151,276.001648 479.335999,278.648041 478.998749,283.044312 
	C478.653717,287.541779 475.164917,289.993835 469.098846,289.999634 
	C466.623871,290.001984 464.148865,290.000000 461.337463,290.000000 
	C461.337463,285.071533 461.337463,280.236969 461.337463,275.000000 
	C463.984436,275.000000 466.585388,275.000000 469.638000,275.000000 
z"/>
<path fill="#000000" opacity="1.000000" stroke="none" 
	d="
M475.748779,259.626343 
	C471.004639,261.316010 466.474915,262.663330 461.310852,264.199341 
	C461.310852,258.399597 461.310852,253.882492 461.310852,249.377502 
	C472.014801,247.527588 478.881317,250.422852 475.748779,259.626343 
z"/>
<path fill="#000000" opacity="1.000000" stroke="none" 
	d="
M880.849304,260.428101 
	C877.277405,268.443512 870.388916,265.290283 864.006714,266.187378 
	C864.006714,261.222961 863.848083,256.469452 864.139160,251.743652 
	C864.198181,250.785324 865.815674,249.422150 866.951172,249.112289 
	C874.282959,247.111618 880.991943,252.430130 880.849304,260.428101 
z"/>
<path fill="#000000" opacity="1.000000" stroke="none" 
	d="
M585.416382,261.099365 
	C583.889282,264.776520 581.310547,266.041748 577.873474,266.005920 
	C575.077759,265.976776 572.281555,266.000000 569.000793,266.000000 
	C569.000793,261.286835 568.811890,256.834351 569.127258,252.417862 
	C569.211243,251.242493 570.640808,249.520798 571.794434,249.168228 
	C579.450073,246.828491 586.429260,252.784332 585.416382,261.099365 
z"/>
<path fill="#000000" opacity="1.000000" stroke="none" 
	d="
M733.000732,194.373032 
	C734.760193,189.532852 738.087952,193.571930 738.133301,193.915833 
	C738.501038,196.706146 738.648438,199.670410 737.998413,202.373795 
	C737.760803,203.362091 735.188660,203.789078 733.000061,204.780945 
	C733.000061,200.731750 733.000061,197.777527 733.000732,194.373032 
z"/>
<path fill="#000000" opacity="1.000000" stroke="none" 
	d="
M733.014648,176.394501 
	C734.668945,176.120850 737.241882,175.739792 737.751770,176.592468 
	C738.719238,178.210205 739.234741,180.834625 738.561035,182.475433 
	C737.971191,183.911850 735.493225,184.572922 733.001770,186.093948 
	C733.001770,182.131714 733.001770,179.487946 733.014648,176.394501 
z"/>
<path fill="#000000" opacity="1.000000" stroke="none" 
	d="
M616.086426,203.574371 
	C615.548279,194.527664 615.217957,185.812302 615.149292,177.094894 
	C615.143860,176.405090 617.040405,175.051895 617.899963,175.165482 
	C619.009583,175.312103 620.830200,176.603134 620.852661,177.441360 
	C621.075745,185.754120 621.195862,194.083496 620.859253,202.388489 
	C620.765625,204.699783 618.738037,205.954880 616.086426,203.574371 
z"/>
<path fill="#000000" opacity="1.000000" stroke="none" 
	d="
M766.000000,185.106583 
	C765.999878,190.222519 766.350952,194.895523 765.834167,199.470490 
	C765.614441,201.415588 763.664612,204.612396 762.348572,204.691132 
	C759.435181,204.865448 758.916382,202.049606 758.964478,199.339340 
	C759.075989,193.053223 758.765747,186.749680 759.142761,180.484283 
	C759.255859,178.604523 760.908081,175.418488 762.141907,175.273682 
	C765.514587,174.877914 766.199402,177.716034 766.014038,180.653442 
	C765.930847,181.972000 766.000000,183.300171 766.000000,185.106583 
z"/>
</svg>